*
*
G04 PADS VX.2 Build Number: 5060570 generated Gerber (RS-274-X) file*
G04 PC Version=2.1*
*
%IN "ESP32-WROVER-V5.pcb"*%
*
%MOIN*%
*
%FSLAX35Y35*%
*
*
*
*
G04 PC Standard Apertures*
*
*
G04 Thermal Relief Aperture macro.*
%AMTER*
1,1,$1,0,0*
1,0,$1-$2,0,0*
21,0,$3,$4,0,0,45*
21,0,$3,$4,0,0,135*
%
*
*
G04 Annular Aperture macro.*
%AMANN*
1,1,$1,0,0*
1,0,$2,0,0*
%
*
*
G04 Odd Aperture macro.*
%AMODD*
1,1,$1,0,0*
1,0,$1-0.005,0,0*
%
*
*
G04 PC Custom Aperture Macros*
*
*
*
*
*
*
G04 PC Aperture Table*
*
%ADD010C,0.001*%
%ADD044C,0.01*%
%ADD109C,0.005*%
*
*
*
*
G04 PC Circuitry*
G04 Layer Name ESP32-WROVER-V5.pcb - circuitry*
%LPD*%
*
G54D10*
G01X2062902Y1512677D02*
X2062859Y1512978D01*
X2062735Y1513225*
X2062533Y1513347*
X2062239Y1513389*
X2062025Y1513346*
X2061858Y1513304*
X2061695Y1513182*
X2061566Y1512967*
X2061479Y1512970*
X2061393Y1513142*
X2061272Y1513263*
X2061063Y1513346*
X2060855Y1513388*
X2060691Y1513347*
X2060480Y1513263*
X2060219Y1513002*
X2060134Y1513037*
Y1513345*
X2059832*
Y1511123*
X2060134*
Y1512546*
X2060136Y1512558*
X2060180Y1512737*
X2060190Y1512757*
X2060413Y1513025*
X2060438Y1513041*
X2060751Y1513130*
X2060777Y1513131*
X2060955Y1513086*
X2060971Y1513079*
X2061105Y1512990*
X2061122Y1512971*
X2061211Y1512792*
X2061216Y1512770*
Y1511123*
X2061518*
Y1512412*
Y1512420*
X2061563Y1512732*
X2061573Y1512755*
X2061707Y1512934*
X2061717Y1512944*
X2061895Y1513077*
X2061915Y1513086*
X2062139Y1513131*
X2062158*
X2062381Y1513086*
X2062412Y1513067*
X2062545Y1512889*
X2062553Y1512875*
X2062598Y1512741*
X2062600Y1512725*
Y1511123*
X2062902*
Y1512677*
X2059152D02*
X2059109Y1512978D01*
X2058985Y1513225*
X2058783Y1513347*
X2058489Y1513389*
X2058275Y1513346*
X2058108Y1513304*
X2057945Y1513182*
X2057816Y1512967*
X2057729Y1512970*
X2057643Y1513142*
X2057522Y1513263*
X2057313Y1513346*
X2057105Y1513388*
X2056941Y1513347*
X2056730Y1513263*
X2056469Y1513002*
X2056384Y1513037*
Y1513345*
X2056082*
Y1511123*
X2056384*
Y1512546*
X2056386Y1512558*
X2056430Y1512737*
X2056440Y1512757*
X2056663Y1513025*
X2056688Y1513041*
X2057001Y1513130*
X2057027Y1513131*
X2057205Y1513086*
X2057221Y1513079*
X2057355Y1512990*
X2057372Y1512971*
X2057461Y1512792*
X2057466Y1512770*
Y1511123*
X2057768*
Y1512412*
Y1512420*
X2057813Y1512732*
X2057823Y1512755*
X2057957Y1512934*
X2057967Y1512944*
X2058145Y1513077*
X2058165Y1513086*
X2058389Y1513131*
X2058408*
X2058631Y1513086*
X2058662Y1513067*
X2058795Y1512889*
X2058803Y1512875*
X2058848Y1512741*
X2058850Y1512725*
Y1511123*
X2059152*
Y1512677*
X2055491Y1512184D02*
X2055139D01*
X2055089Y1512234*
Y1514193*
X2054852*
X2053359Y1512217*
Y1511882*
X2054738*
X2054788Y1511832*
Y1511123*
X2055089*
Y1511832*
X2055139Y1511882*
X2055491*
Y1512184*
X2054788Y1513484D02*
Y1512234D01*
X2054738Y1512184*
X2053800*
X2053760Y1512264*
X2054698Y1513514*
X2054788Y1513484*
X2052768Y1511425D02*
X2052466D01*
Y1511123*
X2052768*
Y1511425*
X2051161Y1514237D02*
X2050971D01*
X2050852Y1514038*
X2050844Y1514029*
X2050621Y1513806*
X2050614Y1513799*
X2050346Y1513621*
X2050343Y1513619*
X2050055Y1513455*
Y1513163*
X2050425Y1513348*
X2050425D02*
X2050779Y1513613D01*
X2050859Y1513573*
Y1511123*
X2051161*
Y1514237*
X2049240Y1512013D02*
X2049198Y1512306D01*
X2049073Y1512515*
X2048907Y1512681*
X2048650Y1512767*
X2048636Y1512854*
X2048979Y1513111*
X2049061Y1513440*
X2048978Y1513857*
X2048641Y1514110*
X2048429Y1514195*
X2048218Y1514237*
X2047881Y1514195*
X2047631Y1514028*
X2047461Y1513773*
X2047352Y1513482*
X2047652Y1513448*
X2047727Y1513636*
X2047729Y1513640*
X2047818Y1513819*
X2047840Y1513841*
X2048019Y1513930*
X2048029Y1513934*
X2048208Y1513979*
X2048230*
X2048453Y1513935*
X2048471Y1513927*
X2048605Y1513838*
X2048622Y1513819*
X2048711Y1513640*
X2048715Y1513630*
X2048759Y1513451*
X2048760Y1513429*
X2048715Y1513206*
X2048702Y1513181*
X2048568Y1513047*
X2048562Y1513042*
X2048384Y1512908*
X2048354Y1512898*
X2048085*
X2048054Y1512651*
X2048256Y1512685*
X2048273*
X2048540Y1512640*
X2048562Y1512631*
X2048741Y1512497*
X2048751Y1512487*
X2048885Y1512309*
X2048894Y1512287*
X2048939Y1512019*
Y1512011*
X2048938Y1512001*
X2048894Y1511778*
X2048888Y1511762*
X2048754Y1511538*
X2048741Y1511524*
X2048562Y1511390*
X2048540Y1511381*
X2048273Y1511336*
X2048255Y1511337*
X2048031Y1511381*
X2048019Y1511386*
X2047840Y1511475*
X2047823Y1511490*
X2047689Y1511668*
X2047681Y1511682*
X2047605Y1511912*
X2047300Y1511878*
X2047373Y1511586*
X2047584Y1511290*
X2047879Y1511122*
X2048218Y1511079*
X2048648Y1511165*
X2048943Y1511334*
X2049155Y1511673*
X2049240Y1512013*
X2012552Y1585402D02*
X2012509Y1585703D01*
X2012385Y1585950*
X2012183Y1586072*
X2011889Y1586114*
X2011675Y1586071*
X2011508Y1586029*
X2011345Y1585907*
X2011216Y1585692*
X2011128Y1585695*
X2011043Y1585867*
X2010922Y1585988*
X2010712Y1586071*
X2010505Y1586113*
X2010340Y1586072*
X2010130Y1585988*
X2009869Y1585727*
X2009784Y1585762*
Y1586070*
X2009482*
Y1583848*
X2009784*
Y1585271*
X2009785Y1585283*
X2009830Y1585462*
X2009840Y1585482*
X2010063Y1585750*
X2010088Y1585766*
X2010400Y1585855*
X2010426Y1585856*
X2010605Y1585811*
X2010621Y1585804*
X2010754Y1585715*
X2010771Y1585696*
X2010861Y1585517*
X2010866Y1585495*
Y1583848*
X2011168*
Y1585137*
Y1585145*
X2011213Y1585457*
X2011222Y1585480*
X2011356Y1585659*
X2011366Y1585669*
X2011545Y1585802*
X2011565Y1585811*
X2011788Y1585856*
X2011808*
X2012031Y1585811*
X2012061Y1585792*
X2012195Y1585614*
X2012203Y1585600*
X2012247Y1585466*
X2012250Y1585450*
Y1583848*
X2012552*
Y1585402*
X2008802D02*
X2008759Y1585703D01*
X2008635Y1585950*
X2008433Y1586072*
X2008139Y1586114*
X2007925Y1586071*
X2007758Y1586029*
X2007595Y1585907*
X2007466Y1585692*
X2007378Y1585695*
X2007293Y1585867*
X2007172Y1585988*
X2006962Y1586071*
X2006755Y1586113*
X2006590Y1586072*
X2006380Y1585988*
X2006119Y1585727*
X2006034Y1585762*
Y1586070*
X2005732*
Y1583848*
X2006034*
Y1585271*
X2006035Y1585283*
X2006080Y1585462*
X2006090Y1585482*
X2006313Y1585750*
X2006338Y1585766*
X2006650Y1585855*
X2006676Y1585856*
X2006855Y1585811*
X2006871Y1585804*
X2007004Y1585715*
X2007021Y1585696*
X2007111Y1585517*
X2007116Y1585495*
Y1583848*
X2007418*
Y1585137*
Y1585145*
X2007463Y1585457*
X2007472Y1585480*
X2007606Y1585659*
X2007616Y1585669*
X2007795Y1585802*
X2007815Y1585811*
X2008038Y1585856*
X2008058*
X2008281Y1585811*
X2008311Y1585792*
X2008445Y1585614*
X2008453Y1585600*
X2008497Y1585466*
X2008500Y1585450*
Y1583848*
X2008802*
Y1585402*
X2005141Y1585800D02*
X2005054Y1586104D01*
X2004879Y1586587*
X2004753Y1586754*
X2004590Y1586876*
X2004163Y1586962*
X2003867Y1586919*
X2003616Y1586794*
X2003449Y1586585*
X2003319Y1586283*
X2003232Y1585889*
X2003187Y1585359*
Y1584965*
X2003275Y1584615*
X2003362Y1584309*
X2003487Y1584101*
X2003783Y1583889*
X2004166Y1583804*
X2004462Y1583847*
X2004462D02*
X2004712Y1583972D01*
X2004880Y1584181*
X2005009Y1584483*
X2005097Y1584877*
X2005141Y1585363*
Y1585800*
X2004839Y1585718D02*
Y1585004D01*
Y1584995*
X2004794Y1584727*
Y1584726*
X2004749Y1584503*
X2004745Y1584490*
X2004655Y1584312*
X2004642Y1584295*
X2004419Y1584116*
X2004397Y1584106*
X2004174Y1584062*
X2004154*
X2003931Y1584106*
X2003910Y1584116*
X2003687Y1584295*
X2003673Y1584312*
X2003584Y1584490*
X2003579Y1584503*
X2003535Y1584726*
Y1584727*
X2003490Y1584995*
X2003489Y1585004*
Y1585718*
X2003490Y1585725*
X2003534Y1586037*
X2003535Y1586040*
X2003579Y1586263*
X2003584Y1586276*
X2003673Y1586454*
X2003687Y1586471*
X2003910Y1586650*
X2003931Y1586660*
X2004154Y1586704*
X2004172Y1586705*
X2004440Y1586660*
X2004471Y1586642*
X2004650Y1586419*
X2004652Y1586415*
X2004742Y1586281*
X2004749Y1586263*
X2004794Y1586040*
Y1586037*
X2004839Y1585725*
Y1585718*
X2002418Y1584150D02*
X2002116D01*
Y1583848*
X2002418*
Y1584150*
X2001390Y1584737D02*
X2001348Y1584990D01*
X2001264Y1585199*
X2001099Y1585364*
X2000838Y1585494*
X2000838D02*
X2000835Y1585582D01*
X2001053Y1585713*
X2001177Y1585837*
X2001260Y1586003*
X2001301Y1586167*
X2001259Y1586501*
X2001050Y1586752*
X2000798Y1586919*
X2000414Y1586962*
X2000030Y1586919*
X1999778Y1586752*
X1999569Y1586500*
X1999527Y1586210*
X1999569Y1586002*
X1999652Y1585837*
X1999776Y1585713*
X1999993Y1585582*
X1999993D02*
X1999984Y1585492D01*
X1999727Y1585406*
X1999565Y1585244*
X1999481Y1584991*
X1999438Y1584737*
X1999524Y1584352*
X1999692Y1584057*
X2000029Y1583847*
X2000414Y1583804*
X2000799Y1583847*
X2001136Y1584057*
X2001305Y1584352*
X2001390Y1584737*
X2000998Y1586152D02*
X2000954Y1585974D01*
X2000947Y1585958*
X2000858Y1585824*
X2000838Y1585807*
X2000660Y1585718*
X2000647Y1585713*
X2000424Y1585669*
X2000404*
X2000181Y1585713*
X2000169Y1585718*
X1999990Y1585807*
X1999971Y1585824*
X1999882Y1585958*
X1999874Y1585976*
X1999829Y1586199*
X1999830Y1586221*
X1999875Y1586400*
X1999882Y1586415*
X1999971Y1586549*
X1999990Y1586566*
X2000169Y1586655*
X2000181Y1586660*
X2000404Y1586704*
X2000424*
X2000647Y1586660*
X2000660Y1586655*
X2000838Y1586566*
X2000861Y1586544*
X2000950Y1586365*
X2000954Y1586355*
X2000998Y1586176*
Y1586152*
X2001089Y1584736D02*
Y1584727D01*
X2001044Y1584460*
X2001035Y1584438*
X2000901Y1584259*
X2000891Y1584249*
X2000712Y1584115*
X2000690Y1584106*
X2000422Y1584061*
X2000414*
X2000236*
X2000208Y1584069*
X2000077Y1584157*
X1999901Y1584244*
X1999901D02*
X1999882Y1584261D01*
X1999792Y1584395*
X1999784Y1584416*
X1999740Y1584729*
X1999739Y1584736*
X1999740Y1584745*
X1999785Y1584969*
X1999791Y1584985*
X1999925Y1585208*
X1999938Y1585222*
X2000116Y1585356*
X2000138Y1585365*
X2000406Y1585410*
X2000422*
X2000690Y1585365*
X2000712Y1585356*
X2000891Y1585222*
X2000904Y1585208*
X2001037Y1584985*
X2001044Y1584969*
X2001088Y1584745*
X2001089Y1584736*
X1998311Y1586962D02*
X1998121D01*
X1998002Y1586763*
X1997994Y1586754*
X1997771Y1586531*
X1997763Y1586524*
X1997496Y1586346*
X1997493Y1586344*
X1997205Y1586180*
Y1585888*
X1997575Y1586073*
X1997929Y1586338*
X1998009Y1586298*
Y1583848*
X1998311*
Y1586962*
X1997300Y1585935D02*
Y1586234D01*
X1997400Y1585985D02*
Y1586291D01*
X1997500Y1586035D02*
Y1586349D01*
X1997600Y1586092D02*
Y1586415D01*
X1997700Y1586167D02*
Y1586482D01*
X1997800Y1586242D02*
Y1586560D01*
X1997900Y1586317D02*
Y1586660D01*
X1998000Y1586327D02*
Y1586761D01*
X1998100Y1583848D02*
Y1586927D01*
X1998200Y1583848D02*
Y1586962D01*
X1998300Y1583848D02*
Y1586962D01*
X1999500Y1584460D02*
Y1585049D01*
X1999600Y1584219D02*
Y1585279D01*
Y1585940D02*
Y1586538D01*
X1999700Y1584052D02*
Y1585379D01*
Y1585788D02*
Y1586658D01*
X1999800Y1583990D02*
Y1584384D01*
Y1585000D02*
Y1585431D01*
Y1585698D02*
Y1586766D01*
X1999900Y1583927D02*
Y1584245D01*
Y1585166D02*
Y1585464D01*
Y1585638D02*
Y1585930D01*
Y1586443D02*
Y1586833D01*
X2000000Y1583865D02*
Y1584195D01*
Y1585269D02*
Y1585501D01*
Y1585577D02*
Y1585802D01*
Y1586571D02*
Y1586899D01*
X2000100Y1583839D02*
Y1584141D01*
Y1585344D02*
Y1585752D01*
Y1586621D02*
Y1586927D01*
X2000200Y1583828D02*
Y1584074D01*
Y1585376D02*
Y1585710D01*
Y1586663D02*
Y1586938D01*
X2000300Y1583817D02*
Y1584061D01*
Y1585392D02*
Y1585690D01*
Y1586683D02*
Y1586949D01*
X2000400Y1583805D02*
Y1584061D01*
Y1585409D02*
Y1585670D01*
Y1586703D02*
Y1586961D01*
X2000500Y1583813D02*
Y1584074D01*
Y1585397D02*
Y1585684D01*
Y1586689D02*
Y1586953D01*
X2000600Y1583824D02*
Y1584091D01*
Y1585380D02*
Y1585704D01*
Y1586669D02*
Y1586941D01*
X2000700Y1583836D02*
Y1584109D01*
Y1585363D02*
Y1585738D01*
Y1586635D02*
Y1586930D01*
X2000800Y1583847D02*
Y1584181D01*
Y1585290D02*
Y1585788D01*
Y1586585D02*
Y1586918D01*
X2000900Y1583910D02*
Y1584258D01*
Y1585213D02*
Y1585464D01*
Y1585621D02*
Y1585888D01*
Y1586465D02*
Y1586852D01*
X2001000Y1583972D02*
Y1584392D01*
Y1585047D02*
Y1585414D01*
Y1585681D02*
Y1586785D01*
X2001100Y1584035D02*
Y1585363D01*
Y1585760D02*
Y1586692D01*
X2001200Y1584169D02*
Y1585263D01*
Y1585883D02*
Y1586572D01*
X2001300Y1584344D02*
Y1585110D01*
Y1586164D02*
Y1586175D01*
X2002200Y1583848D02*
Y1584150D01*
X2002300Y1583848D02*
Y1584150D01*
X2002400Y1583848D02*
Y1584150D01*
X2003200Y1584915D02*
Y1585510D01*
X2003300Y1584527D02*
Y1586197D01*
X2003400Y1584246D02*
Y1586471D01*
X2003500Y1584092D02*
Y1584935D01*
Y1585797D02*
Y1586649D01*
X2003600Y1584020D02*
Y1584458D01*
Y1586308D02*
Y1586774D01*
X2003700Y1583949D02*
Y1584284D01*
Y1586482D02*
Y1586836D01*
X2003800Y1583886D02*
Y1584204D01*
Y1586562D02*
Y1586886D01*
X2003900Y1583863D02*
Y1584124D01*
Y1586642D02*
Y1586924D01*
X2004000Y1583841D02*
Y1584092D01*
Y1586673D02*
Y1586938D01*
X2004100Y1583819D02*
Y1584073D01*
Y1586693D02*
Y1586953D01*
X2004200Y1583809D02*
Y1584067D01*
Y1586700D02*
Y1586954D01*
X2004300Y1583823D02*
Y1584087D01*
Y1586683D02*
Y1586934D01*
X2004400Y1583838D02*
Y1584107D01*
Y1586667D02*
Y1586914D01*
X2004500Y1583866D02*
Y1584181D01*
Y1586606D02*
Y1586894D01*
X2004600Y1583916D02*
Y1584261D01*
Y1586481D02*
Y1586869D01*
X2004700Y1583966D02*
Y1584401D01*
Y1586344D02*
Y1586794D01*
X2004800Y1584081D02*
Y1584764D01*
Y1585996D02*
Y1586691D01*
X2004900Y1584228D02*
Y1586528D01*
X2005000Y1584462D02*
Y1586253D01*
X2005100Y1584912D02*
Y1585944D01*
X2005800Y1583848D02*
Y1586070D01*
X2005900Y1583848D02*
Y1586070D01*
X2006000Y1583848D02*
Y1586070D01*
X2006100Y1585494D02*
Y1585715D01*
X2006200Y1585614D02*
Y1585808D01*
X2006300Y1585734D02*
Y1585908D01*
X2006400Y1585784D02*
Y1585996D01*
X2006500Y1585812D02*
Y1586036D01*
X2006600Y1585841D02*
Y1586074D01*
X2006700Y1585850D02*
Y1586099D01*
X2006800Y1585825D02*
Y1586104D01*
X2006900Y1585784D02*
Y1586084D01*
X2007000Y1585718D02*
Y1586056D01*
X2007100Y1585538D02*
Y1586016D01*
X2007200Y1583848D02*
Y1585959D01*
X2007300Y1583848D02*
Y1585852D01*
X2007400Y1583848D02*
Y1585673D01*
X2007500Y1585517D02*
Y1585749D01*
X2007600Y1585650D02*
Y1585911D01*
X2007700Y1585731D02*
Y1585986D01*
X2007800Y1585806D02*
Y1586039D01*
X2007900Y1585828D02*
Y1586064D01*
X2008000Y1585848D02*
Y1586086D01*
X2008100Y1585848D02*
Y1586106D01*
X2008200Y1585828D02*
Y1586105D01*
X2008300Y1585803D02*
Y1586090D01*
X2008400Y1585674D02*
Y1586076D01*
X2008500Y1583848D02*
Y1586031D01*
X2008600Y1583848D02*
Y1585971D01*
X2008700Y1583848D02*
Y1585820D01*
X2008800Y1583848D02*
Y1585414D01*
X2009500Y1583848D02*
Y1586070D01*
X2009600Y1583848D02*
Y1586070D01*
X2009700Y1583848D02*
Y1586070D01*
X2009800Y1585342D02*
Y1585726D01*
X2009900Y1585554D02*
Y1585758D01*
X2010000Y1585674D02*
Y1585858D01*
X2010100Y1585769D02*
Y1585958D01*
X2010200Y1585798D02*
Y1586016D01*
X2010300Y1585826D02*
Y1586056D01*
X2010400Y1585855D02*
Y1586087D01*
X2010500Y1585837D02*
Y1586112D01*
X2010600Y1585812D02*
Y1586094D01*
X2010700Y1585751D02*
Y1586074D01*
X2010800Y1585638D02*
Y1586036D01*
X2010900Y1583848D02*
Y1585996D01*
X2011000Y1583848D02*
Y1585909D01*
X2011100Y1583848D02*
Y1585752D01*
X2011200Y1585367D02*
Y1585676D01*
X2011300Y1585583D02*
Y1585832D01*
X2011400Y1585694D02*
Y1585948D01*
X2011500Y1585769D02*
Y1586023D01*
X2011600Y1585818D02*
Y1586052D01*
X2011700Y1585838D02*
Y1586076D01*
X2011800Y1585857D02*
Y1586096D01*
X2011900Y1585838D02*
Y1586112D01*
X2012000Y1585818D02*
Y1586098D01*
X2012100Y1585741D02*
Y1586083D01*
X2012200Y1585606D02*
Y1586061D01*
X2012300Y1583848D02*
Y1586001D01*
X2012400Y1583848D02*
Y1585920D01*
X2012500Y1583848D02*
Y1585720D01*
X2047300Y1511878D02*
X2047300D01*
X2047400Y1511548D02*
Y1511889D01*
Y1513476D02*
Y1513611D01*
X2047500Y1511408D02*
Y1511900D01*
Y1513465D02*
Y1513832D01*
X2047600Y1511281D02*
Y1511911D01*
Y1513454D02*
Y1513982D01*
X2047700Y1511224D02*
Y1511653D01*
Y1513569D02*
Y1514074D01*
X2047800Y1511167D02*
Y1511520D01*
Y1513783D02*
Y1514141D01*
X2047900Y1511119D02*
Y1511445D01*
Y1513871D02*
Y1514197D01*
X2048000Y1511106D02*
Y1511395D01*
Y1513921D02*
Y1514210D01*
X2048100Y1511094D02*
Y1511368D01*
Y1512659D02*
Y1512898D01*
Y1513952D02*
Y1514222D01*
X2048200Y1511081D02*
Y1511348D01*
Y1512676D02*
Y1512898D01*
Y1513977D02*
Y1514235D01*
X2048300Y1511096D02*
Y1511341D01*
Y1512680D02*
Y1512898D01*
Y1513965D02*
Y1514220D01*
X2048400Y1511116D02*
Y1511358D01*
Y1512664D02*
Y1512920D01*
Y1513945D02*
Y1514200D01*
X2048500Y1511136D02*
Y1511374D01*
Y1512647D02*
Y1512995D01*
Y1513908D02*
Y1514166D01*
X2048600Y1511156D02*
Y1511419D01*
Y1512603D02*
Y1513079D01*
Y1513841D02*
Y1514126D01*
X2048700Y1511195D02*
Y1511494D01*
Y1512528D02*
Y1512750D01*
Y1512902D02*
Y1513179D01*
Y1513662D02*
Y1514066D01*
X2048800Y1511252D02*
Y1511616D01*
Y1512422D02*
Y1512717D01*
Y1512977D02*
Y1513991D01*
X2048900Y1511309D02*
Y1511809D01*
Y1512251D02*
Y1512684D01*
Y1513052D02*
Y1513916D01*
X2049000Y1511425D02*
Y1512588D01*
Y1513195D02*
Y1513747D01*
X2049100Y1511585D02*
Y1512470D01*
X2049200Y1511852D02*
Y1512295D01*
X2050100Y1513185D02*
Y1513480D01*
X2050200Y1513235D02*
Y1513537D01*
X2050300Y1513285D02*
Y1513595D01*
X2050400Y1513335D02*
Y1513657D01*
X2050500Y1513404D02*
Y1513724D01*
X2050600Y1513479D02*
Y1513790D01*
X2050700Y1513554D02*
Y1513884D01*
X2050800Y1513622D02*
Y1513984D01*
X2050900Y1511123D02*
Y1514119D01*
X2051000Y1511123D02*
Y1514237D01*
X2051100Y1511123D02*
Y1514237D01*
X2052500Y1511123D02*
Y1511425D01*
X2052600Y1511123D02*
Y1511425D01*
X2052700Y1511123D02*
Y1511425D01*
X2053400Y1511882D02*
Y1512271D01*
X2053500Y1511882D02*
Y1512404D01*
X2053600Y1511882D02*
Y1512536D01*
X2053700Y1511882D02*
Y1512668D01*
X2053800Y1511882D02*
Y1512184D01*
Y1512317D02*
Y1512801D01*
X2053900Y1511882D02*
Y1512184D01*
Y1512450D02*
Y1512933D01*
X2054000Y1511882D02*
Y1512184D01*
Y1512584D02*
Y1513065D01*
X2054100Y1511882D02*
Y1512184D01*
Y1512717D02*
Y1513198D01*
X2054200Y1511882D02*
Y1512184D01*
Y1512850D02*
Y1513330D01*
X2054300Y1511882D02*
Y1512184D01*
Y1512984D02*
Y1513462D01*
X2054400Y1511882D02*
Y1512184D01*
Y1513117D02*
Y1513595D01*
X2054500Y1511882D02*
Y1512184D01*
Y1513250D02*
Y1513727D01*
X2054600Y1511882D02*
Y1512184D01*
Y1513384D02*
Y1513860D01*
X2054700Y1511882D02*
Y1512184D01*
Y1513517D02*
Y1513992D01*
X2054800Y1511123D02*
Y1514124D01*
X2054900Y1511123D02*
Y1514193D01*
X2055000Y1511123D02*
Y1514193D01*
X2055100Y1511863D02*
Y1512203D01*
X2055200Y1511882D02*
Y1512184D01*
X2055300Y1511882D02*
Y1512184D01*
X2055400Y1511882D02*
Y1512184D01*
X2056100Y1511123D02*
Y1513345D01*
X2056200Y1511123D02*
Y1513345D01*
X2056300Y1511123D02*
Y1513345D01*
X2056400Y1512616D02*
Y1513001D01*
X2056500Y1512829D02*
Y1513033D01*
X2056600Y1512949D02*
Y1513133D01*
X2056700Y1513044D02*
Y1513233D01*
X2056800Y1513073D02*
Y1513291D01*
X2056900Y1513101D02*
Y1513331D01*
X2057000Y1513130D02*
Y1513362D01*
X2057100Y1513112D02*
Y1513387D01*
X2057200Y1513087D02*
Y1513369D01*
X2057300Y1513026D02*
Y1513349D01*
X2057400Y1512914D02*
Y1513311D01*
X2057500Y1511123D02*
Y1513271D01*
X2057600Y1511123D02*
Y1513185D01*
X2057700Y1511123D02*
Y1513028D01*
X2057800Y1512640D02*
Y1512951D01*
X2057900Y1512858D02*
Y1513107D01*
X2058000Y1512969D02*
Y1513223D01*
X2058100Y1513044D02*
Y1513298D01*
X2058200Y1513093D02*
Y1513327D01*
X2058300Y1513113D02*
Y1513351D01*
X2058400Y1513132D02*
Y1513371D01*
X2058500Y1513113D02*
Y1513387D01*
X2058600Y1513093D02*
Y1513373D01*
X2058700Y1513016D02*
Y1513358D01*
X2058800Y1512882D02*
Y1513336D01*
X2058900Y1511123D02*
Y1513276D01*
X2059000Y1511123D02*
Y1513195D01*
X2059100Y1511123D02*
Y1512995D01*
X2059900Y1511123D02*
Y1513345D01*
X2060000Y1511123D02*
Y1513345D01*
X2060100Y1511123D02*
Y1513345D01*
X2060200Y1512769D02*
Y1512990D01*
X2060300Y1512889D02*
Y1513083D01*
X2060400Y1513009D02*
Y1513183D01*
X2060500Y1513059D02*
Y1513271D01*
X2060600Y1513087D02*
Y1513311D01*
X2060700Y1513116D02*
Y1513349D01*
X2060800Y1513125D02*
Y1513374D01*
X2060900Y1513100D02*
Y1513379D01*
X2061000Y1513060D02*
Y1513359D01*
X2061100Y1512993D02*
Y1513331D01*
X2061200Y1512814D02*
Y1513291D01*
X2061300Y1511123D02*
Y1513235D01*
X2061400Y1511123D02*
Y1513128D01*
X2061500Y1511123D02*
Y1512949D01*
X2061600Y1512791D02*
Y1513023D01*
X2061700Y1512925D02*
Y1513186D01*
X2061800Y1513006D02*
Y1513261D01*
X2061900Y1513081D02*
Y1513314D01*
X2062000Y1513103D02*
Y1513339D01*
X2062100Y1513123D02*
Y1513361D01*
X2062200Y1513123D02*
Y1513381D01*
X2062300Y1513103D02*
Y1513380D01*
X2062400Y1513079D02*
Y1513366D01*
X2062500Y1512949D02*
Y1513351D01*
X2062600Y1512728D02*
Y1513306D01*
X2062700Y1511123D02*
Y1513246D01*
X2062800Y1511123D02*
Y1513095D01*
X2062900Y1511123D02*
Y1512690D01*
*
G04 PC Custom Flashes*
G04 Layer Name ESP32-WROVER-V5.pcb - flashes*
%LPD*%
*
*
G04 PC Circuitry*
G04 Layer Name ESP32-WROVER-V5.pcb - circuitry*
%LPD*%
*
G54D10*
X1968504Y1574803D02*
X1968507D01*
X2039370D02*
X2039373D01*
X2039724Y1451093D02*
X2039727D01*
X2039370Y1574803D02*
X2039373D01*
G54D44*
X1964504Y1541493D02*
X1972504Y1549493D01*
X1964504D02*
X1972504Y1541493D01*
X1964504Y1461493D02*
X1972504Y1469493D01*
X1964504D02*
X1972504Y1461493D01*
X1964504Y1521493D02*
X1972504Y1529493D01*
X1964504D02*
X1972504Y1521493D01*
X2035370Y1516493D02*
X2043370Y1524493D01*
X2035370D02*
X2043370Y1516493D01*
X1964504Y1456493D02*
X1972504Y1464493D01*
X1964504D02*
X1972504Y1456493D01*
X1964504Y1516493D02*
X1972504D01*
Y1524493*
X1964504*
Y1516493*
X1968504Y1520493D02*
Y1524493D01*
X2035370Y1511493D02*
X2043370Y1519493D01*
X2035370D02*
X2043370Y1511493D01*
X1964504Y1451493D02*
X1972504Y1459493D01*
X1964504D02*
X1972504Y1451493D01*
X1964504Y1511493D02*
X1972504Y1519493D01*
X1964504D02*
X1972504Y1511493D01*
X2035370Y1506493D02*
X2043370Y1514493D01*
X2035370D02*
X2043370Y1506493D01*
X2035384Y1451493D02*
X2043384Y1459493D01*
X2035384D02*
X2043384Y1451493D01*
X2035370Y1536493D02*
X2043370Y1544493D01*
X2035370D02*
X2043370Y1536493D01*
X1964504Y1506493D02*
X1972504Y1514493D01*
X1964504D02*
X1972504Y1506493D01*
X2035370Y1501493D02*
X2043370Y1509493D01*
X2035370D02*
X2043370Y1501493D01*
X2035384Y1456493D02*
X2043384Y1464493D01*
X2035384D02*
X2043384Y1456493D01*
X1964504Y1501493D02*
X1972504Y1509493D01*
X1964504D02*
X1972504Y1501493D01*
X2035370Y1486493D02*
X2043370Y1494493D01*
X2035370D02*
X2043370Y1486493D01*
X2035384Y1461493D02*
X2043384Y1469493D01*
X2035384D02*
X2043384Y1461493D01*
X1964504Y1496493D02*
X1972504Y1504493D01*
X1964504D02*
X1972504Y1496493D01*
X2035370D02*
X2043370Y1504493D01*
X2035370D02*
X2043370Y1496493D01*
X2035370Y1541493D02*
X2043370Y1549493D01*
X2035370D02*
X2043370Y1541493D01*
X1964504Y1491493D02*
X1972504Y1499493D01*
X1964504D02*
X1972504Y1491493D01*
X1968504Y1536493D02*
X1972504Y1540493D01*
X1968504Y1544493*
X1964504Y1540493*
X1968504Y1536493*
Y1540493D02*
Y1544493D01*
X2035370Y1491493D02*
X2043370Y1499493D01*
X2035370D02*
X2043370Y1491493D01*
X1964504Y1486493D02*
X1972504Y1494493D01*
X1964504D02*
X1972504Y1486493D01*
X2035370Y1481493D02*
X2043370Y1489493D01*
X2035370D02*
X2043370Y1481493D01*
X1964504D02*
X1972504Y1489493D01*
X1964504D02*
X1972504Y1481493D01*
X2035384Y1476493D02*
X2043384Y1484493D01*
X2035384D02*
X2043384Y1476493D01*
X1964504D02*
X1972504Y1484493D01*
X1964504D02*
X1972504Y1476493D01*
X2035384Y1471493D02*
X2043384Y1479493D01*
X2035384D02*
X2043384Y1471493D01*
X1964504Y1466493D02*
X1972504Y1474493D01*
X1964504D02*
X1972504Y1466493D01*
X2035384D02*
X2043384Y1474493D01*
X2035384D02*
X2043384Y1466493D01*
X2035370Y1531493D02*
X2043370Y1539493D01*
X2035370D02*
X2043370Y1531493D01*
X1964504Y1471493D02*
X1972504Y1479493D01*
X1964504D02*
X1972504Y1471493D01*
X1964504Y1531493D02*
X1972504Y1539493D01*
X1964504D02*
X1972504Y1531493D01*
X2035370Y1526493D02*
X2043370Y1534493D01*
X2035370D02*
X2043370Y1526493D01*
X1964504D02*
X1972504Y1534493D01*
X1964504D02*
X1972504Y1526493D01*
X2035370Y1521493D02*
X2043370Y1529493D01*
X2035370D02*
X2043370Y1521493D01*
X1969527Y1453559D02*
X1977527D01*
X1973527Y1449559D02*
Y1457559D01*
X1969572Y1463086D02*
X1977572D01*
X1973572Y1459086D02*
Y1467086D01*
X1969527Y1458256D02*
X1977527D01*
X1973527Y1454256D02*
Y1462256D01*
X1974652Y1463049D02*
X1982652D01*
X1978652Y1459049D02*
Y1467049D01*
X1974443Y1458388D02*
X1982443D01*
X1978443Y1454388D02*
Y1462388D01*
X1974571Y1453608D02*
X1982571D01*
X1978571Y1449608D02*
Y1457608D01*
X1979475Y1453573D02*
X1987475D01*
X1983475Y1449573D02*
Y1457573D01*
X1984728Y1453539D02*
X1992728D01*
X1988728Y1449539D02*
Y1457539D01*
X1989632Y1453434D02*
X1997632D01*
X1993632Y1449434D02*
Y1457434D01*
X2003762Y1461109D02*
X2011762D01*
X2007762Y1457109D02*
Y1465109D01*
X2003762Y1456075D02*
X2011762D01*
X2007762Y1452075D02*
Y1460075D01*
X1997258Y1461465D02*
X2005258D01*
X2001258Y1457465D02*
Y1465465D01*
X2000216Y1458802D02*
X2008216D01*
X2004216Y1454802D02*
Y1462802D01*
X1997432Y1456387D02*
X2005432D01*
X2001432Y1452387D02*
Y1460387D01*
X1994815Y1453399D02*
X2002815D01*
X1998815Y1449399D02*
Y1457399D01*
X1999581Y1453330D02*
X2007581D01*
X2003581Y1449330D02*
Y1457330D01*
X2003762Y1453335D02*
X2011762D01*
X2007762Y1449335D02*
Y1457335D01*
X2007727Y1453335D02*
X2015727D01*
X2011727Y1449335D02*
Y1457335D01*
X2019760Y1455714D02*
X2027760D01*
X2023760Y1451714D02*
Y1459714D01*
X2030444Y1453199D02*
X2038444D01*
X2034444Y1449199D02*
Y1457199D01*
X2011920Y1453326D02*
X2019920D01*
X2015920Y1449326D02*
Y1457326D01*
X2016878Y1453338D02*
X2024878D01*
X2020878Y1449338D02*
Y1457338D01*
X2021191Y1453130D02*
X2029191D01*
X2025191Y1449130D02*
Y1457130D01*
X2025713Y1453095D02*
X2033713D01*
X2029713Y1449095D02*
Y1457095D01*
X2024944Y1456097D02*
X2032944D01*
X2028944Y1452097D02*
Y1460097D01*
X2026102Y1459075D02*
X2034102D01*
X2030102Y1455075D02*
Y1463075D01*
X2025087Y1462840D02*
X2033087D01*
X2029087Y1458840D02*
Y1466840D01*
X2030834Y1463121D02*
X2038834D01*
X2034834Y1459121D02*
Y1467121D01*
X1969699Y1482949D02*
X1977699D01*
X1973699Y1478949D02*
Y1486949D01*
X1969604Y1477824D02*
X1977604D01*
X1973604Y1473824D02*
Y1481824D01*
X1969572Y1473233D02*
X1977572D01*
X1973572Y1469233D02*
Y1477233D01*
X1969505Y1467938D02*
X1977505D01*
X1973505Y1463938D02*
Y1471938D01*
X1973406Y1483170D02*
X1981406D01*
X1977406Y1479170D02*
Y1487170D01*
X1971910Y1480388D02*
X1979910D01*
X1975910Y1476388D02*
Y1484388D01*
X1972445Y1470829D02*
X1980445D01*
X1976445Y1466829D02*
Y1474829D01*
X1984711Y1473176D02*
X1992711D01*
X1988711Y1469176D02*
Y1477176D01*
X1979701Y1473716D02*
X1987701D01*
X1983701Y1469716D02*
Y1477716D01*
X1974883Y1468194D02*
X1982883D01*
X1978883Y1464194D02*
Y1472194D01*
X1978079Y1470838D02*
X1986079D01*
X1982079Y1466838D02*
Y1474838D01*
X1975473Y1478379D02*
X1983473D01*
X1979473Y1474379D02*
Y1482379D01*
X1975457Y1473346D02*
X1983457D01*
X1979457Y1469346D02*
Y1477346D01*
X1972950Y1475489D02*
X1980950D01*
X1976950Y1471489D02*
Y1479489D01*
X1987483Y1464289D02*
X1995483D01*
X1991483Y1460289D02*
Y1468289D01*
X1982142Y1469842D02*
X1990142D01*
X1986142Y1465842D02*
Y1473842D01*
X1982142Y1464753D02*
X1990142D01*
X1986142Y1460753D02*
Y1468753D01*
X1991230Y1471003D02*
X1999230D01*
X1995230Y1467003D02*
Y1475003D01*
X1988077Y1475197D02*
X1996077D01*
X1992077Y1471197D02*
Y1479197D01*
X1995842Y1472807D02*
X2003842D01*
X1999842Y1468807D02*
Y1476807D01*
X1992274Y1468168D02*
X2000274D01*
X1996274Y1464168D02*
Y1472168D01*
X2004323Y1479117D02*
X2012323D01*
X2008323Y1475117D02*
Y1483117D01*
X2009364Y1479175D02*
X2017364D01*
X2013364Y1475175D02*
Y1483175D01*
X1999872Y1482481D02*
X2007872D01*
X2003872Y1478481D02*
Y1486481D01*
X1999872Y1479175D02*
X2007872D01*
X2003872Y1475175D02*
Y1483175D01*
X2009464Y1482506D02*
X2017464D01*
X2013464Y1478506D02*
Y1486506D01*
X2004323Y1482480D02*
X2012323D01*
X2008323Y1478480D02*
Y1486480D01*
X2009545Y1469234D02*
X2017545D01*
X2013545Y1465234D02*
Y1473234D01*
X1994719Y1463831D02*
X2002719D01*
X1998719Y1459831D02*
Y1467831D01*
X1997939Y1467097D02*
X2005939D01*
X2001939Y1463097D02*
Y1471097D01*
X2003687Y1467095D02*
X2011687D01*
X2007687Y1463095D02*
Y1471095D01*
X2000107Y1464153D02*
X2008107D01*
X2004107Y1460153D02*
Y1468153D01*
X1997526Y1477375D02*
X2005526D01*
X2001526Y1473375D02*
Y1481375D01*
X1995842Y1469303D02*
X2003842D01*
X1999842Y1465303D02*
Y1473303D01*
X2012004Y1472803D02*
X2020004D01*
X2016004Y1468803D02*
Y1476803D01*
X2019313Y1468852D02*
X2027313D01*
X2023313Y1464852D02*
Y1472852D01*
X2014399Y1468547D02*
X2022399D01*
X2018399Y1464547D02*
Y1472547D01*
X2014444Y1475081D02*
X2022444D01*
X2018444Y1471081D02*
Y1479081D01*
X2013952Y1479107D02*
X2021952D01*
X2017952Y1475107D02*
Y1483107D01*
X2030381Y1468642D02*
X2038381D01*
X2034381Y1464642D02*
Y1472642D01*
X2030381Y1472295D02*
X2038381D01*
X2034381Y1468295D02*
Y1476295D01*
X2025935Y1473387D02*
X2033935D01*
X2029935Y1469387D02*
Y1477387D01*
X2027388Y1475942D02*
X2035388D01*
X2031388Y1471942D02*
Y1479942D01*
X2024642Y1478034D02*
X2032642D01*
X2028642Y1474034D02*
Y1482034D01*
X2030381Y1478151D02*
X2038381D01*
X2034381Y1474151D02*
Y1482151D01*
X2015004Y1471003D02*
X2023004D01*
X2019004Y1467003D02*
Y1475003D01*
X2022004Y1477375D02*
X2030004D01*
X2026004Y1473375D02*
Y1481375D01*
X1969532Y1503081D02*
X1977532D01*
X1973532Y1499081D02*
Y1507081D01*
X1969427Y1497898D02*
X1977427D01*
X1973427Y1493898D02*
Y1501898D01*
X1969473Y1492897D02*
X1977473D01*
X1973473Y1488897D02*
Y1496897D01*
X1969511Y1487847D02*
X1977511D01*
X1973511Y1483847D02*
Y1491847D01*
X1991230Y1496850D02*
X1999230D01*
X1995230Y1492850D02*
Y1500850D01*
X1979594Y1485303D02*
X1987594D01*
X1983594Y1481303D02*
Y1489303D01*
X1986433Y1485303D02*
X1994433D01*
X1990433Y1481303D02*
Y1489303D01*
X1983904Y1499003D02*
X1991904D01*
X1987904Y1495003D02*
Y1503003D01*
X1977309Y1500008D02*
X1985309D01*
X1981309Y1496008D02*
Y1504008D01*
X1979651Y1496534D02*
X1987651D01*
X1983651Y1492534D02*
Y1500534D01*
X1977157Y1493955D02*
X1985157D01*
X1981157Y1489955D02*
Y1497955D01*
X1979779Y1491217D02*
X1987779D01*
X1983779Y1487217D02*
Y1495217D01*
X1977453Y1487510D02*
X1985453D01*
X1981453Y1483510D02*
Y1491510D01*
X1973266Y1486440D02*
X1981266D01*
X1977266Y1482440D02*
Y1490440D01*
X1971840Y1490232D02*
X1979840D01*
X1975840Y1486232D02*
Y1494232D01*
X1984278Y1491012D02*
X1992278D01*
X1988278Y1487012D02*
Y1495012D01*
X1984253Y1494157D02*
X1992253D01*
X1988253Y1490157D02*
Y1498157D01*
X1989628Y1498524D02*
X1997628D01*
X1993628Y1494524D02*
Y1502524D01*
X1995842Y1497203D02*
X2003842D01*
X1999842Y1493203D02*
Y1501203D01*
X2002504Y1500403D02*
X2010504D01*
X2006504Y1496403D02*
Y1504403D01*
X2000380Y1501918D02*
X2008380D01*
X2004380Y1497918D02*
Y1505918D01*
X2002504Y1485303D02*
X2010504D01*
X2006504Y1481303D02*
Y1489303D01*
X2004504Y1498524D02*
X2012504D01*
X2008504Y1494524D02*
Y1502524D01*
X2002704Y1488757D02*
X2010704D01*
X2006704Y1484757D02*
Y1492757D01*
X2000550Y1491938D02*
X2008550D01*
X2004550Y1487938D02*
Y1495938D01*
X1999423Y1488481D02*
X2007423D01*
X2003423Y1484481D02*
Y1492481D01*
X1997532Y1495934D02*
X2005532D01*
X2001532Y1491934D02*
Y1499934D01*
X1992767Y1498524D02*
X2000767D01*
X1996767Y1494524D02*
Y1502524D01*
X2006680Y1502097D02*
X2014680D01*
X2010680Y1498097D02*
Y1506097D01*
X2030381Y1492733D02*
X2038381D01*
X2034381Y1488733D02*
Y1496733D01*
X2030381Y1487863D02*
X2038381D01*
X2034381Y1483863D02*
Y1491863D01*
X2025416Y1487716D02*
X2033416D01*
X2029416Y1483716D02*
Y1491716D01*
X2025406Y1492577D02*
X2033406D01*
X2029406Y1488577D02*
Y1496577D01*
X2014174Y1502095D02*
X2022174D01*
X2018174Y1498095D02*
Y1506095D01*
X2016665Y1501314D02*
X2024665D01*
X2020665Y1497314D02*
Y1505314D01*
X2021310Y1501336D02*
X2029310D01*
X2025310Y1497336D02*
Y1505336D01*
X2023865Y1501103D02*
X2031865D01*
X2027865Y1497103D02*
Y1505103D01*
X2026047Y1501983D02*
X2034047D01*
X2030047Y1497983D02*
Y1505983D01*
X1979504Y1522753D02*
X1987504D01*
X1983504Y1518753D02*
Y1526753D01*
X1991204Y1517603D02*
X1999204D01*
X1995204Y1513603D02*
Y1521603D01*
X1991204Y1514803D02*
X1999204D01*
X1995204Y1510803D02*
Y1518803D01*
X1977025Y1511834D02*
X1985025D01*
X1981025Y1507834D02*
Y1515834D01*
X1991204Y1512003D02*
X1999204D01*
X1995204Y1508003D02*
Y1516003D01*
X1991204Y1509203D02*
X1999204D01*
X1995204Y1505203D02*
Y1513203D01*
X1988404Y1509203D02*
X1996404D01*
X1992404Y1505203D02*
Y1513203D01*
X1988404Y1512003D02*
X1996404D01*
X1992404Y1508003D02*
Y1516003D01*
X1988404Y1514803D02*
X1996404D01*
X1992404Y1510803D02*
Y1518803D01*
X1988404Y1517603D02*
X1996404D01*
X1992404Y1513603D02*
Y1521603D01*
X1988404Y1520403D02*
X1996404D01*
X1992404Y1516403D02*
Y1524403D01*
X1991204Y1520403D02*
X1999204D01*
X1995204Y1516403D02*
Y1524403D01*
X1981104Y1505803D02*
X1989104D01*
X1985104Y1501803D02*
Y1509803D01*
X1977504Y1521103D02*
X1985504D01*
X1981504Y1517103D02*
Y1525103D01*
X1979504Y1519453D02*
X1987504D01*
X1983504Y1515453D02*
Y1523453D01*
X1980004Y1513453D02*
X1988004D01*
X1984004Y1509453D02*
Y1517453D01*
X1978204Y1517658D02*
X1986204D01*
X1982204Y1513658D02*
Y1521658D01*
X1979292Y1507189D02*
X1987292D01*
X1983292Y1503189D02*
Y1511189D01*
X1980504Y1515492D02*
X1988504D01*
X1984504Y1511492D02*
Y1519492D01*
X1979179Y1509364D02*
X1987179D01*
X1983179Y1505364D02*
Y1513364D01*
X1979574Y1511406D02*
X1987574D01*
X1983574Y1507406D02*
Y1515406D01*
X2011504Y1504603D02*
X2019504D01*
X2015504Y1500603D02*
Y1508603D01*
X2009504Y1510503D02*
X2017504D01*
X2013504Y1506503D02*
Y1514503D01*
X2009304Y1504603D02*
X2017304D01*
X2013304Y1500603D02*
Y1508603D01*
X2007161Y1506484D02*
X2015161D01*
X2011161Y1502484D02*
Y1510484D01*
X2007178Y1504293D02*
X2015178D01*
X2011178Y1500293D02*
Y1508293D01*
X1999604Y1514803D02*
X2007604D01*
X2003604Y1510803D02*
Y1518803D01*
X1996804Y1514803D02*
X2004804D01*
X2000804Y1510803D02*
Y1518803D01*
X1999604Y1517603D02*
X2007604D01*
X2003604Y1513603D02*
Y1521603D01*
X1996804Y1517603D02*
X2004804D01*
X2000804Y1513603D02*
Y1521603D01*
X1994004Y1517603D02*
X2002004D01*
X1998004Y1513603D02*
Y1521603D01*
X1994004Y1514803D02*
X2002004D01*
X1998004Y1510803D02*
Y1518803D01*
X1999604Y1512003D02*
X2007604D01*
X2003604Y1508003D02*
Y1516003D01*
X1996804Y1512003D02*
X2004804D01*
X2000804Y1508003D02*
Y1516003D01*
X1994004Y1512003D02*
X2002004D01*
X1998004Y1508003D02*
Y1516003D01*
X1999604Y1509203D02*
X2007604D01*
X2003604Y1505203D02*
Y1513203D01*
X1996804Y1509203D02*
X2004804D01*
X2000804Y1505203D02*
Y1513203D01*
X1994004Y1509203D02*
X2002004D01*
X1998004Y1505203D02*
Y1513203D01*
X1994004Y1520403D02*
X2002004D01*
X1998004Y1516403D02*
Y1524403D01*
X1996804Y1520403D02*
X2004804D01*
X2000804Y1516403D02*
Y1524403D01*
X1999604Y1520403D02*
X2007604D01*
X2003604Y1516403D02*
Y1524403D01*
X2007004Y1514353D02*
X2015004D01*
X2011004Y1510353D02*
Y1518353D01*
X2007004Y1518703D02*
X2015004D01*
X2011004Y1514703D02*
Y1522703D01*
X2025031Y1512362D02*
X2033031D01*
X2029031Y1508362D02*
Y1516362D01*
X2012211Y1510885D02*
X2020211D01*
X2016211Y1506885D02*
Y1514885D01*
X2014504Y1510923D02*
X2022504D01*
X2018504Y1506923D02*
Y1514923D01*
X2013242Y1519583D02*
X2021242D01*
X2017242Y1515583D02*
Y1523583D01*
X2015974Y1519969D02*
X2023974D01*
X2019974Y1515969D02*
Y1523969D01*
X2014941Y1523158D02*
X2022941D01*
X2018941Y1519158D02*
Y1527158D01*
X2014504Y1508106D02*
X2022504D01*
X2018504Y1504106D02*
Y1512106D01*
X2016147Y1504686D02*
X2024147D01*
X2020147Y1500686D02*
Y1508686D01*
X2019224Y1503530D02*
X2027224D01*
X2023224Y1499530D02*
Y1507530D01*
X2027545Y1503954D02*
X2035545D01*
X2031545Y1499954D02*
Y1507954D01*
X2027545Y1506559D02*
X2035545D01*
X2031545Y1502559D02*
Y1510559D01*
X2027545Y1509376D02*
X2035545D01*
X2031545Y1505376D02*
Y1513376D01*
X2027545Y1512420D02*
X2035545D01*
X2031545Y1508420D02*
Y1516420D01*
X2027545Y1515368D02*
X2035545D01*
X2031545Y1511368D02*
Y1519368D01*
X2027511Y1518151D02*
X2035511D01*
X2031511Y1514151D02*
Y1522151D01*
X2027637Y1522109D02*
X2035637D01*
X2031637Y1518109D02*
Y1526109D01*
X2025330Y1520251D02*
X2033330D01*
X2029330Y1516251D02*
Y1524251D01*
X2022768Y1520997D02*
X2030768D01*
X2026768Y1516997D02*
Y1524997D01*
X1969222Y1527399D02*
X1977222D01*
X1973222Y1523399D02*
Y1531399D01*
X1971112Y1529309D02*
X1979112D01*
X1975112Y1525309D02*
Y1533309D01*
X1970169Y1536412D02*
X1978169D01*
X1974169Y1532412D02*
Y1540412D01*
X1970344Y1542790D02*
X1978344D01*
X1974344Y1538790D02*
Y1546790D01*
X1979504Y1526003D02*
X1987504D01*
X1983504Y1522003D02*
Y1530003D01*
X1975304Y1527159D02*
X1983304D01*
X1979304Y1523159D02*
Y1531159D01*
X1977304Y1528903D02*
X1985304D01*
X1981304Y1524903D02*
Y1532903D01*
X1977004Y1524403D02*
X1985004D01*
X1981004Y1520403D02*
Y1528403D01*
X1975885Y1534853D02*
X1983885D01*
X1979885Y1530853D02*
Y1538853D01*
X1988117Y1535803D02*
X1996117D01*
X1992117Y1531803D02*
Y1539803D01*
X1979504Y1533603D02*
X1987504D01*
X1983504Y1529603D02*
Y1537603D01*
X1974485Y1530474D02*
X1982485D01*
X1978485Y1526474D02*
Y1534474D01*
X1986754Y1537303D02*
X1994754D01*
X1986754Y1545303*
X1994754*
X1986754Y1537303*
Y1534903D02*
X1994754D01*
X1986754Y1542903*
X1994754*
X1986754Y1534903*
X1980704Y1537303D02*
X1988704D01*
X1980704Y1545303*
X1988704*
X1980704Y1537303*
Y1534903D02*
X1988704D01*
X1980704Y1542903*
X1988704*
X1980704Y1534903*
X2004062Y1536375D02*
X2012062D01*
X2008062Y1532375D02*
Y1540375D01*
X2004062Y1533125D02*
X2012062D01*
X2008062Y1529125D02*
Y1537125D01*
X2005650Y1530611D02*
X2013650D01*
X2009650Y1526611D02*
Y1534611D01*
X2008300Y1532103D02*
X2016300D01*
X2012300Y1528103D02*
Y1536103D01*
X2011254Y1529843D02*
X2019254D01*
X2015254Y1525843D02*
Y1533843D01*
X2010937Y1532745D02*
X2018937D01*
X2014937Y1528745D02*
Y1536745D01*
X2005812Y1538796D02*
X2013812D01*
X2009812Y1534796D02*
Y1542796D01*
X2004376Y1540883D02*
X2012376D01*
X2008376Y1536883D02*
Y1544883D01*
X2006926Y1542437D02*
X2014926D01*
X2010926Y1538437D02*
Y1546437D01*
X1992504Y1536473D02*
X2000504D01*
X1996504Y1532473D02*
Y1540473D01*
X2009430Y1536061D02*
X2017430D01*
X2013430Y1532061D02*
Y1540061D01*
X2009450Y1539202D02*
X2017450D01*
X2013450Y1535202D02*
Y1543202D01*
X2009501Y1542148D02*
X2017501D01*
X2013501Y1538148D02*
Y1546148D01*
X1998828Y1531927D02*
X2006828D01*
X2002828Y1527927D02*
Y1535927D01*
X1998882Y1534761D02*
X2006882D01*
X2002882Y1530761D02*
Y1538761D01*
X1998950Y1538539D02*
X2006950D01*
X2002950Y1534539D02*
Y1542539D01*
X1999826Y1542016D02*
X2007826D01*
X2003826Y1538016D02*
Y1546016D01*
X2004754Y1523303D02*
X2012754D01*
X2004754Y1531303*
X2012754*
X2004754Y1523303*
X2024972Y1524155D02*
X2032972D01*
X2028972Y1520155D02*
Y1528155D01*
X2015342Y1529891D02*
X2023342D01*
X2019342Y1525891D02*
Y1533891D01*
X2015427Y1532688D02*
X2023427D01*
X2019427Y1528688D02*
Y1536688D01*
X2014881Y1539722D02*
X2022881D01*
X2018881Y1535722D02*
Y1543722D01*
X2011959Y1538609D02*
X2019959D01*
X2015959Y1534609D02*
Y1542609D01*
X2012086Y1542510D02*
X2020086D01*
X2016086Y1538510D02*
Y1546510D01*
X2030215Y1532699D02*
X2038215D01*
X2034215Y1528699D02*
Y1536699D01*
X2026738Y1529212D02*
X2034738D01*
X2030738Y1525212D02*
Y1533212D01*
X2024542Y1532742D02*
X2032542D01*
X2028542Y1528742D02*
Y1536742D01*
X2021711Y1524155D02*
X2029711D01*
X2025711Y1520155D02*
Y1528155D01*
X2018721Y1524158D02*
X2026721D01*
X2022721Y1520158D02*
Y1528158D01*
X2019755Y1529848D02*
X2027755D01*
X2023755Y1525848D02*
Y1533848D01*
X2019984Y1532688D02*
X2027984D01*
X2023984Y1528688D02*
Y1536688D01*
X2021456Y1535269D02*
X2029456D01*
X2025456Y1531269D02*
Y1539269D01*
X2021073Y1538052D02*
X2029073D01*
X2025073Y1534052D02*
Y1542052D01*
X2017977Y1538261D02*
X2025977D01*
X2021977Y1534261D02*
Y1542261D01*
X2018030Y1535378D02*
X2026030D01*
X2022030Y1531378D02*
Y1539378D01*
X2015055Y1535722D02*
X2023055D01*
X2019055Y1531722D02*
Y1539722D01*
X2011890Y1535061D02*
X2019890D01*
X2015890Y1531061D02*
Y1539061D01*
X1966692Y1548843D02*
X1974692D01*
X1970692Y1544843D02*
Y1552843D01*
X1969479Y1547347D02*
X1977479D01*
X1973479Y1543347D02*
Y1551347D01*
X1971462Y1545086D02*
X1979462D01*
X1975462Y1541086D02*
Y1549086D01*
X1989654Y1548947D02*
X1997654D01*
X1993654Y1544947D02*
Y1552947D01*
X1986976Y1547278D02*
X1994976D01*
X1990976Y1543278D02*
Y1551278D01*
X1978739Y1548962D02*
X1986739D01*
X1982739Y1544962D02*
Y1552962D01*
X1983880Y1548912D02*
X1991880D01*
X1987880Y1544912D02*
Y1552912D01*
X1981619Y1547243D02*
X1989619D01*
X1985619Y1543243D02*
Y1551243D01*
X1972640Y1548962D02*
X1980640D01*
X1976640Y1544962D02*
Y1552962D01*
X1975736Y1547312D02*
X1983736D01*
X1979736Y1543312D02*
Y1551312D01*
X1989506Y1545255D02*
X1997506D01*
X1993506Y1541255D02*
Y1549255D01*
X1987250Y1544391D02*
X1995250D01*
X1991250Y1540391D02*
Y1548391D01*
X1983597Y1544634D02*
X1991597D01*
X1987597Y1540634D02*
Y1548634D01*
X1974901Y1545051D02*
X1982901D01*
X1978901Y1541051D02*
Y1549051D01*
X1979493Y1544947D02*
X1987493D01*
X1983493Y1540947D02*
Y1548947D01*
X2002011Y1545148D02*
X2010011D01*
X2006011Y1541148D02*
Y1549148D01*
X1994802Y1548878D02*
X2002802D01*
X1998802Y1544878D02*
Y1552878D01*
X1992611Y1547417D02*
X2000611D01*
X1996611Y1543417D02*
Y1551417D01*
X2011403Y1548557D02*
X2019403D01*
X2015403Y1544557D02*
Y1552557D01*
X2009309Y1546949D02*
X2017309D01*
X2013309Y1542949D02*
Y1550949D01*
X2007018Y1548684D02*
X2015018D01*
X2011018Y1544684D02*
Y1552684D01*
X2004984Y1546838D02*
X2012984D01*
X2008984Y1542838D02*
Y1550838D01*
X2003055Y1548872D02*
X2011055D01*
X2007055Y1544872D02*
Y1552872D01*
X2000469Y1547384D02*
X2008469D01*
X2004469Y1543384D02*
Y1551384D01*
X1997237Y1547382D02*
X2005237D01*
X2001237Y1543382D02*
Y1551382D01*
X1997180Y1544206D02*
X2005180D01*
X2001180Y1540206D02*
Y1548206D01*
X1994496Y1544123D02*
X2002496D01*
X1998496Y1540123D02*
Y1548123D01*
X1992001Y1544269D02*
X2000001D01*
X1996001Y1540269D02*
Y1548269D01*
X2019451Y1545975D02*
X2027451D01*
X2023451Y1541975D02*
Y1549975D01*
X2021461Y1545575D02*
X2029461D01*
X2025461Y1541575D02*
Y1549575D01*
X2021331Y1547936D02*
X2029331D01*
X2025331Y1543936D02*
Y1551936D01*
X2018758Y1548751D02*
X2026758D01*
X2022758Y1544751D02*
Y1552751D01*
X2013664Y1548756D02*
X2021664D01*
X2017664Y1544756D02*
Y1552756D01*
X2032863Y1548609D02*
X2040863D01*
X2036863Y1544609D02*
Y1552609D01*
X1968504Y1574803D02*
X2039370D01*
Y1451181*
X1968504*
Y1574803*
X2218504Y1718803D02*
X2476504D01*
X2218504Y1694803D02*
X2476504D01*
X2218504Y1670803D02*
X2476504D01*
X2218504Y1646803D02*
X2476504D01*
X2218504Y1622803D02*
X2476504D01*
X2218504Y1598803D02*
X2476504D01*
X2218504Y1574803D02*
X2476504D01*
X2218504Y1718803D02*
Y1574803D01*
X2302504Y1718803D02*
Y1574803D01*
X2338504Y1718803D02*
Y1574803D01*
X2374504Y1718803D02*
Y1574803D01*
X2428504Y1718803D02*
Y1574803D01*
X2476504Y1718803D02*
Y1574803D01*
X2254004Y1707553D02*
X2253458Y1708303D01*
X2252640Y1708678*
X2251549*
X2250731Y1708303*
X2250186Y1707553*
Y1706803*
X2250458Y1706053*
X2250731Y1705678*
X2251277Y1705303*
X2252913Y1704553*
X2253458Y1704178*
X2253731Y1703803*
X2254004Y1703053*
Y1701928*
X2253458Y1701178*
X2252640Y1700803*
X2251549*
X2250731Y1701178*
X2250186Y1701928*
X2256458Y1708678D02*
Y1700803D01*
X2262731Y1708678D02*
X2258913Y1700803D01*
Y1708678D02*
X2262731D01*
X2258913Y1700803D02*
X2262731D01*
X2265186Y1708678D02*
Y1700803D01*
Y1708678D02*
X2268731D01*
X2265186Y1704928D02*
X2267368D01*
X2265186Y1700803D02*
X2268731D01*
X2312368Y1708678D02*
X2311822Y1708303D01*
X2311277Y1707553*
X2311004Y1706803*
X2310731Y1705678*
Y1703803*
X2311004Y1702678*
X2311277Y1701928*
X2311822Y1701178*
X2312368Y1700803*
X2313458*
X2314004Y1701178*
X2314549Y1701928*
X2314822Y1702678*
X2315095Y1703803*
Y1705678*
X2314822Y1706803*
X2314549Y1707553*
X2314004Y1708303*
X2313458Y1708678*
X2312368*
X2313186Y1702303D02*
X2314822Y1700053D01*
X2319458Y1708678D02*
Y1700803D01*
X2317549Y1708678D02*
X2321368D01*
X2323822D02*
X2326004Y1704928D01*
Y1700803*
X2328186Y1708678D02*
X2326004Y1704928D01*
X2350549Y1707553D02*
X2350004Y1708303D01*
X2349186Y1708678*
X2348095*
X2347277Y1708303*
X2346731Y1707553*
Y1706803*
X2347004Y1706053*
X2347277Y1705678*
X2347822Y1705303*
X2349458Y1704553*
X2350004Y1704178*
X2350277Y1703803*
X2350549Y1703053*
Y1701928*
X2350004Y1701178*
X2349186Y1700803*
X2348095*
X2347277Y1701178*
X2346731Y1701928*
X2353004Y1708678D02*
X2355186Y1704928D01*
Y1700803*
X2357368Y1708678D02*
X2355186Y1704928D01*
X2359822Y1708678D02*
Y1700803D01*
Y1708678D02*
X2362004Y1700803D01*
X2364186Y1708678D02*
X2362004Y1700803D01*
X2364186Y1708678D02*
Y1700803D01*
X2386004Y1708678D02*
Y1700803D01*
Y1708678D02*
X2388458D01*
X2389277Y1708303*
X2389549Y1707928*
X2389822Y1707178*
Y1706053*
X2389549Y1705303*
X2389277Y1704928*
X2388458Y1704553*
X2386004*
X2392277Y1708678D02*
Y1700803D01*
X2395549*
X2400186Y1708678D02*
X2398004Y1700803D01*
X2400186Y1708678D02*
X2402368Y1700803D01*
X2398822Y1703428D02*
X2401549D01*
X2406731Y1708678D02*
Y1700803D01*
X2404822Y1708678D02*
X2408640D01*
X2411095D02*
Y1700803D01*
Y1708678D02*
X2414640D01*
X2411095Y1704928D02*
X2413277D01*
X2411095Y1700803D02*
X2414640D01*
X2417095Y1708678D02*
Y1700803D01*
Y1708678D02*
X2419004D01*
X2419822Y1708303*
X2420368Y1707553*
X2420640Y1706803*
X2420913Y1705678*
Y1703803*
X2420640Y1702678*
X2420368Y1701928*
X2419822Y1701178*
X2419004Y1700803*
X2417095*
X2445186Y1708678D02*
Y1700803D01*
X2443277Y1708678D02*
X2447095D01*
X2451186D02*
X2450640Y1708303D01*
X2450095Y1707553*
X2449822Y1706803*
X2449549Y1705678*
Y1703803*
X2449822Y1702678*
X2450095Y1701928*
X2450640Y1701178*
X2451186Y1700803*
X2452277*
X2452822Y1701178*
X2453368Y1701928*
X2453640Y1702678*
X2453913Y1703803*
Y1705678*
X2453640Y1706803*
X2453368Y1707553*
X2452822Y1708303*
X2452277Y1708678*
X2451186*
X2456368D02*
Y1700803D01*
X2459640*
X2226140Y1684678D02*
X2225322Y1684303D01*
X2224777Y1683178*
X2224504Y1681303*
Y1680178*
X2224777Y1678303*
X2225322Y1677178*
X2226140Y1676803*
X2226686*
X2227504Y1677178*
X2228049Y1678303*
X2228322Y1680178*
Y1681303*
X2228049Y1683178*
X2227504Y1684303*
X2226686Y1684678*
X2226140*
X2231049Y1677553D02*
X2230777Y1677178D01*
X2231049Y1676803*
X2231322Y1677178*
X2231049Y1677553*
X2234049Y1682803D02*
Y1683178D01*
X2234322Y1683928*
X2234595Y1684303*
X2235140Y1684678*
X2236231*
X2236777Y1684303*
X2237049Y1683928*
X2237322Y1683178*
Y1682428*
X2237049Y1681678*
X2236504Y1680553*
X2233777Y1676803*
X2237595*
X2242777Y1684678D02*
X2240049Y1679428D01*
X2244140*
X2242777Y1684678D02*
Y1676803D01*
X2250140Y1682053D02*
X2249868Y1680928D01*
X2249322Y1680178*
X2248504Y1679803*
X2248231*
X2247413Y1680178*
X2246868Y1680928*
X2246595Y1682053*
Y1682428*
X2246868Y1683553*
X2247413Y1684303*
X2248231Y1684678*
X2248504*
X2249322Y1684303*
X2249868Y1683553*
X2250140Y1682053*
Y1680178*
X2249868Y1678303*
X2249322Y1677178*
X2248504Y1676803*
X2247958*
X2247140Y1677178*
X2246868Y1677928*
X2256140Y1682053D02*
X2255868Y1680928D01*
X2255322Y1680178*
X2254504Y1679803*
X2254231*
X2253413Y1680178*
X2252868Y1680928*
X2252595Y1682053*
Y1682428*
X2252868Y1683553*
X2253413Y1684303*
X2254231Y1684678*
X2254504*
X2255322Y1684303*
X2255868Y1683553*
X2256140Y1682053*
Y1680178*
X2255868Y1678303*
X2255322Y1677178*
X2254504Y1676803*
X2253958*
X2253140Y1677178*
X2252868Y1677928*
X2261322Y1684678D02*
X2258595Y1679428D01*
X2262686*
X2261322Y1684678D02*
Y1676803D01*
X2311549Y1682803D02*
Y1683178D01*
X2311822Y1683928*
X2312095Y1684303*
X2312640Y1684678*
X2313731*
X2314277Y1684303*
X2314549Y1683928*
X2314822Y1683178*
Y1682428*
X2314549Y1681678*
X2314004Y1680553*
X2311277Y1676803*
X2315095*
X2321095Y1684678D02*
X2318368D01*
X2318095Y1681303*
X2318368Y1681678*
X2319186Y1682053*
X2320004*
X2320822Y1681678*
X2321368Y1680928*
X2321640Y1679803*
X2321368Y1679053*
X2321095Y1677928*
X2320549Y1677178*
X2319731Y1676803*
X2318913*
X2318095Y1677178*
X2317822Y1677553*
X2317549Y1678303*
X2327368Y1683553D02*
X2327095Y1684303D01*
X2326277Y1684678*
X2325731*
X2324913Y1684303*
X2324368Y1683178*
X2324095Y1681303*
Y1679428*
X2324368Y1677928*
X2324913Y1677178*
X2325731Y1676803*
X2326004*
X2326822Y1677178*
X2327368Y1677928*
X2327640Y1679053*
Y1679428*
X2327368Y1680553*
X2326822Y1681303*
X2326004Y1681678*
X2325731*
X2324913Y1681303*
X2324368Y1680553*
X2324095Y1679428*
X2350504Y1682803D02*
X2362504D01*
X2356504Y1676803D02*
Y1688803D01*
X2383140Y1684678D02*
X2385322Y1680928D01*
Y1676803*
X2387504Y1684678D02*
X2385322Y1680928D01*
X2389958Y1684678D02*
Y1676803D01*
Y1684678D02*
X2393504D01*
X2389958Y1680928D02*
X2392140D01*
X2389958Y1676803D02*
X2393504D01*
X2399777Y1683553D02*
X2399231Y1684303D01*
X2398413Y1684678*
X2397322*
X2396504Y1684303*
X2395958Y1683553*
Y1682803*
X2396231Y1682053*
X2396504Y1681678*
X2397049Y1681303*
X2398686Y1680553*
X2399231Y1680178*
X2399504Y1679803*
X2399777Y1679053*
Y1677928*
X2399231Y1677178*
X2398413Y1676803*
X2397322*
X2396504Y1677178*
X2395958Y1677928*
X2436322Y1683553D02*
Y1676803D01*
X2433868Y1680178D02*
X2438777D01*
X2446140Y1686178D02*
X2441231Y1674178D01*
X2448595Y1680178D02*
X2453504D01*
X2457595Y1684678D02*
X2456777Y1684303D01*
X2456231Y1683178*
X2455958Y1681303*
Y1680178*
X2456231Y1678303*
X2456777Y1677178*
X2457595Y1676803*
X2458140*
X2458958Y1677178*
X2459504Y1678303*
X2459777Y1680178*
Y1681303*
X2459504Y1683178*
X2458958Y1684303*
X2458140Y1684678*
X2457595*
X2462504Y1677553D02*
X2462231Y1677178D01*
X2462504Y1676803*
X2462777Y1677178*
X2462504Y1677553*
X2466868Y1684678D02*
X2466049Y1684303D01*
X2465504Y1683178*
X2465231Y1681303*
Y1680178*
X2465504Y1678303*
X2466049Y1677178*
X2466868Y1676803*
X2467413*
X2468231Y1677178*
X2468777Y1678303*
X2469049Y1680178*
Y1681303*
X2468777Y1683178*
X2468231Y1684303*
X2467413Y1684678*
X2466868*
X2226140Y1660678D02*
X2225322Y1660303D01*
X2224777Y1659178*
X2224504Y1657303*
Y1656178*
X2224777Y1654303*
X2225322Y1653178*
X2226140Y1652803*
X2226686*
X2227504Y1653178*
X2228049Y1654303*
X2228322Y1656178*
Y1657303*
X2228049Y1659178*
X2227504Y1660303*
X2226686Y1660678*
X2226140*
X2231049Y1653553D02*
X2230777Y1653178D01*
X2231049Y1652803*
X2231322Y1653178*
X2231049Y1653553*
X2237322Y1660678D02*
X2234595D01*
X2234322Y1657303*
X2234595Y1657678*
X2235413Y1658053*
X2236231*
X2237049Y1657678*
X2237595Y1656928*
X2237868Y1655803*
X2237595Y1655053*
X2237322Y1653928*
X2236777Y1653178*
X2235958Y1652803*
X2235140*
X2234322Y1653178*
X2234049Y1653553*
X2233777Y1654303*
X2243868Y1660678D02*
X2241140D01*
X2240868Y1657303*
X2241140Y1657678*
X2241958Y1658053*
X2242777*
X2243595Y1657678*
X2244140Y1656928*
X2244413Y1655803*
X2244140Y1655053*
X2243868Y1653928*
X2243322Y1653178*
X2242504Y1652803*
X2241686*
X2240868Y1653178*
X2240595Y1653553*
X2240322Y1654303*
X2315095Y1660678D02*
X2318095D01*
X2316458Y1657678*
X2317277*
X2317822Y1657303*
X2318095Y1656928*
X2318368Y1655803*
Y1655053*
X2318095Y1653928*
X2317549Y1653178*
X2316731Y1652803*
X2315913*
X2315095Y1653178*
X2314822Y1653553*
X2314549Y1654303*
X2324095Y1659553D02*
X2323822Y1660303D01*
X2323004Y1660678*
X2322458*
X2321640Y1660303*
X2321095Y1659178*
X2320822Y1657303*
Y1655428*
X2321095Y1653928*
X2321640Y1653178*
X2322458Y1652803*
X2322731*
X2323549Y1653178*
X2324095Y1653928*
X2324368Y1655053*
Y1655428*
X2324095Y1656553*
X2323549Y1657303*
X2322731Y1657678*
X2322458*
X2321640Y1657303*
X2321095Y1656553*
X2320822Y1655428*
X2350504Y1652803D02*
X2362504Y1664803D01*
X2350504D02*
X2362504Y1652803D01*
X2383140Y1660678D02*
X2385322Y1656928D01*
Y1652803*
X2387504Y1660678D02*
X2385322Y1656928D01*
X2389958Y1660678D02*
Y1652803D01*
Y1660678D02*
X2393504D01*
X2389958Y1656928D02*
X2392140D01*
X2389958Y1652803D02*
X2393504D01*
X2399777Y1659553D02*
X2399231Y1660303D01*
X2398413Y1660678*
X2397322*
X2396504Y1660303*
X2395958Y1659553*
Y1658803*
X2396231Y1658053*
X2396504Y1657678*
X2397049Y1657303*
X2398686Y1656553*
X2399231Y1656178*
X2399504Y1655803*
X2399777Y1655053*
Y1653928*
X2399231Y1653178*
X2398413Y1652803*
X2397322*
X2396504Y1653178*
X2395958Y1653928*
X2436322Y1659553D02*
Y1652803D01*
X2433868Y1656178D02*
X2438777D01*
X2446140Y1662178D02*
X2441231Y1650178D01*
X2448595Y1656178D02*
X2453504D01*
X2457595Y1660678D02*
X2456777Y1660303D01*
X2456231Y1659178*
X2455958Y1657303*
Y1656178*
X2456231Y1654303*
X2456777Y1653178*
X2457595Y1652803*
X2458140*
X2458958Y1653178*
X2459504Y1654303*
X2459777Y1656178*
Y1657303*
X2459504Y1659178*
X2458958Y1660303*
X2458140Y1660678*
X2457595*
X2462504Y1653553D02*
X2462231Y1653178D01*
X2462504Y1652803*
X2462777Y1653178*
X2462504Y1653553*
X2466868Y1660678D02*
X2466049Y1660303D01*
X2465504Y1659178*
X2465231Y1657303*
Y1656178*
X2465504Y1654303*
X2466049Y1653178*
X2466868Y1652803*
X2467413*
X2468231Y1653178*
X2468777Y1654303*
X2469049Y1656178*
Y1657303*
X2468777Y1659178*
X2468231Y1660303*
X2467413Y1660678*
X2466868*
X2226140Y1636678D02*
X2225322Y1636303D01*
X2224777Y1635178*
X2224504Y1633303*
Y1632178*
X2224777Y1630303*
X2225322Y1629178*
X2226140Y1628803*
X2226686*
X2227504Y1629178*
X2228049Y1630303*
X2228322Y1632178*
Y1633303*
X2228049Y1635178*
X2227504Y1636303*
X2226686Y1636678*
X2226140*
X2231049Y1629553D02*
X2230777Y1629178D01*
X2231049Y1628803*
X2231322Y1629178*
X2231049Y1629553*
X2237322Y1636678D02*
X2234595D01*
X2234322Y1633303*
X2234595Y1633678*
X2235413Y1634053*
X2236231*
X2237049Y1633678*
X2237595Y1632928*
X2237868Y1631803*
X2237595Y1631053*
X2237322Y1629928*
X2236777Y1629178*
X2235958Y1628803*
X2235140*
X2234322Y1629178*
X2234049Y1629553*
X2233777Y1630303*
X2241958Y1636678D02*
X2241140Y1636303D01*
X2240595Y1635178*
X2240322Y1633303*
Y1632178*
X2240595Y1630303*
X2241140Y1629178*
X2241958Y1628803*
X2242504*
X2243322Y1629178*
X2243868Y1630303*
X2244140Y1632178*
Y1633303*
X2243868Y1635178*
X2243322Y1636303*
X2242504Y1636678*
X2241958*
X2247958D02*
X2247140Y1636303D01*
X2246868Y1635553*
Y1634803*
X2247140Y1634053*
X2247686Y1633678*
X2248777Y1633303*
X2249595Y1632928*
X2250140Y1632178*
X2250413Y1631428*
Y1630303*
X2250140Y1629553*
X2249868Y1629178*
X2249049Y1628803*
X2247958*
X2247140Y1629178*
X2246868Y1629553*
X2246595Y1630303*
Y1631428*
X2246868Y1632178*
X2247413Y1632928*
X2248231Y1633303*
X2249322Y1633678*
X2249868Y1634053*
X2250140Y1634803*
Y1635553*
X2249868Y1636303*
X2249049Y1636678*
X2247958*
X2318777Y1635178D02*
X2319322Y1635553D01*
X2320140Y1636678*
Y1628803*
X2350504D02*
X2362504D01*
Y1640803*
X2350504*
Y1628803*
X2356504Y1634803D02*
Y1640803D01*
X2383140Y1636678D02*
X2385322Y1632928D01*
Y1628803*
X2387504Y1636678D02*
X2385322Y1632928D01*
X2389958Y1636678D02*
Y1628803D01*
Y1636678D02*
X2393504D01*
X2389958Y1632928D02*
X2392140D01*
X2389958Y1628803D02*
X2393504D01*
X2399777Y1635553D02*
X2399231Y1636303D01*
X2398413Y1636678*
X2397322*
X2396504Y1636303*
X2395958Y1635553*
Y1634803*
X2396231Y1634053*
X2396504Y1633678*
X2397049Y1633303*
X2398686Y1632553*
X2399231Y1632178*
X2399504Y1631803*
X2399777Y1631053*
Y1629928*
X2399231Y1629178*
X2398413Y1628803*
X2397322*
X2396504Y1629178*
X2395958Y1629928*
X2436322Y1635553D02*
Y1628803D01*
X2433868Y1632178D02*
X2438777D01*
X2446140Y1638178D02*
X2441231Y1626178D01*
X2448595Y1632178D02*
X2453504D01*
X2457595Y1636678D02*
X2456777Y1636303D01*
X2456231Y1635178*
X2455958Y1633303*
Y1632178*
X2456231Y1630303*
X2456777Y1629178*
X2457595Y1628803*
X2458140*
X2458958Y1629178*
X2459504Y1630303*
X2459777Y1632178*
Y1633303*
X2459504Y1635178*
X2458958Y1636303*
X2458140Y1636678*
X2457595*
X2462504Y1629553D02*
X2462231Y1629178D01*
X2462504Y1628803*
X2462777Y1629178*
X2462504Y1629553*
X2466868Y1636678D02*
X2466049Y1636303D01*
X2465504Y1635178*
X2465231Y1633303*
Y1632178*
X2465504Y1630303*
X2466049Y1629178*
X2466868Y1628803*
X2467413*
X2468231Y1629178*
X2468777Y1630303*
X2469049Y1632178*
Y1633303*
X2468777Y1635178*
X2468231Y1636303*
X2467413Y1636678*
X2466868*
X2226140Y1612678D02*
X2225322Y1612303D01*
X2224777Y1611178*
X2224504Y1609303*
Y1608178*
X2224777Y1606303*
X2225322Y1605178*
X2226140Y1604803*
X2226686*
X2227504Y1605178*
X2228049Y1606303*
X2228322Y1608178*
Y1609303*
X2228049Y1611178*
X2227504Y1612303*
X2226686Y1612678*
X2226140*
X2231049Y1605553D02*
X2230777Y1605178D01*
X2231049Y1604803*
X2231322Y1605178*
X2231049Y1605553*
X2237595Y1612678D02*
X2234868Y1604803D01*
X2233777Y1612678D02*
X2237595D01*
X2318777Y1611178D02*
X2319322Y1611553D01*
X2320140Y1612678*
Y1604803*
X2356504D02*
X2362504Y1610803D01*
X2356504Y1616803*
X2350504Y1610803*
X2356504Y1604803*
Y1610803D02*
Y1616803D01*
X2383140Y1612678D02*
X2385322Y1608928D01*
Y1604803*
X2387504Y1612678D02*
X2385322Y1608928D01*
X2389958Y1612678D02*
Y1604803D01*
Y1612678D02*
X2393504D01*
X2389958Y1608928D02*
X2392140D01*
X2389958Y1604803D02*
X2393504D01*
X2399777Y1611553D02*
X2399231Y1612303D01*
X2398413Y1612678*
X2397322*
X2396504Y1612303*
X2395958Y1611553*
Y1610803*
X2396231Y1610053*
X2396504Y1609678*
X2397049Y1609303*
X2398686Y1608553*
X2399231Y1608178*
X2399504Y1607803*
X2399777Y1607053*
Y1605928*
X2399231Y1605178*
X2398413Y1604803*
X2397322*
X2396504Y1605178*
X2395958Y1605928*
X2436322Y1611553D02*
Y1604803D01*
X2433868Y1608178D02*
X2438777D01*
X2446140Y1614178D02*
X2441231Y1602178D01*
X2448595Y1608178D02*
X2453504D01*
X2457595Y1612678D02*
X2456777Y1612303D01*
X2456231Y1611178*
X2455958Y1609303*
Y1608178*
X2456231Y1606303*
X2456777Y1605178*
X2457595Y1604803*
X2458140*
X2458958Y1605178*
X2459504Y1606303*
X2459777Y1608178*
Y1609303*
X2459504Y1611178*
X2458958Y1612303*
X2458140Y1612678*
X2457595*
X2462504Y1605553D02*
X2462231Y1605178D01*
X2462504Y1604803*
X2462777Y1605178*
X2462504Y1605553*
X2466868Y1612678D02*
X2466049Y1612303D01*
X2465504Y1611178*
X2465231Y1609303*
Y1608178*
X2465504Y1606303*
X2466049Y1605178*
X2466868Y1604803*
X2467413*
X2468231Y1605178*
X2468777Y1606303*
X2469049Y1608178*
Y1609303*
X2468777Y1611178*
X2468231Y1612303*
X2467413Y1612678*
X2466868*
X2226140Y1588678D02*
X2225322Y1588303D01*
X2224777Y1587178*
X2224504Y1585303*
Y1584178*
X2224777Y1582303*
X2225322Y1581178*
X2226140Y1580803*
X2226686*
X2227504Y1581178*
X2228049Y1582303*
X2228322Y1584178*
Y1585303*
X2228049Y1587178*
X2227504Y1588303*
X2226686Y1588678*
X2226140*
X2231049Y1581553D02*
X2230777Y1581178D01*
X2231049Y1580803*
X2231322Y1581178*
X2231049Y1581553*
X2234049Y1586803D02*
Y1587178D01*
X2234322Y1587928*
X2234595Y1588303*
X2235140Y1588678*
X2236231*
X2236777Y1588303*
X2237049Y1587928*
X2237322Y1587178*
Y1586428*
X2237049Y1585678*
X2236504Y1584553*
X2233777Y1580803*
X2237595*
X2243595Y1588678D02*
X2240868D01*
X2240595Y1585303*
X2240868Y1585678*
X2241686Y1586053*
X2242504*
X2243322Y1585678*
X2243868Y1584928*
X2244140Y1583803*
X2243868Y1583053*
X2243595Y1581928*
X2243049Y1581178*
X2242231Y1580803*
X2241413*
X2240595Y1581178*
X2240322Y1581553*
X2240049Y1582303*
X2249322Y1588678D02*
X2246595Y1583428D01*
X2250686*
X2249322Y1588678D02*
Y1580803D01*
X2320958Y1588678D02*
X2318231D01*
X2317958Y1585303*
X2318231Y1585678*
X2319049Y1586053*
X2319868*
X2320686Y1585678*
X2321231Y1584928*
X2321504Y1583803*
X2321231Y1583053*
X2320958Y1581928*
X2320413Y1581178*
X2319595Y1580803*
X2318777*
X2317958Y1581178*
X2317686Y1581553*
X2317413Y1582303*
X2350504Y1580803D02*
X2362504D01*
X2350504Y1592803*
X2362504*
X2350504Y1580803*
X2383140Y1588678D02*
X2385322Y1584928D01*
Y1580803*
X2387504Y1588678D02*
X2385322Y1584928D01*
X2389958Y1588678D02*
Y1580803D01*
Y1588678D02*
X2393504D01*
X2389958Y1584928D02*
X2392140D01*
X2389958Y1580803D02*
X2393504D01*
X2399777Y1587553D02*
X2399231Y1588303D01*
X2398413Y1588678*
X2397322*
X2396504Y1588303*
X2395958Y1587553*
Y1586803*
X2396231Y1586053*
X2396504Y1585678*
X2397049Y1585303*
X2398686Y1584553*
X2399231Y1584178*
X2399504Y1583803*
X2399777Y1583053*
Y1581928*
X2399231Y1581178*
X2398413Y1580803*
X2397322*
X2396504Y1581178*
X2395958Y1581928*
X2436322Y1587553D02*
Y1580803D01*
X2433868Y1584178D02*
X2438777D01*
X2446140Y1590178D02*
X2441231Y1578178D01*
X2448595Y1584178D02*
X2453504D01*
X2457595Y1588678D02*
X2456777Y1588303D01*
X2456231Y1587178*
X2455958Y1585303*
Y1584178*
X2456231Y1582303*
X2456777Y1581178*
X2457595Y1580803*
X2458140*
X2458958Y1581178*
X2459504Y1582303*
X2459777Y1584178*
Y1585303*
X2459504Y1587178*
X2458958Y1588303*
X2458140Y1588678*
X2457595*
X2462504Y1581553D02*
X2462231Y1581178D01*
X2462504Y1580803*
X2462777Y1581178*
X2462504Y1581553*
X2466868Y1588678D02*
X2466049Y1588303D01*
X2465504Y1587178*
X2465231Y1585303*
Y1584178*
X2465504Y1582303*
X2466049Y1581178*
X2466868Y1580803*
X2467413*
X2468231Y1581178*
X2468777Y1582303*
X2469049Y1584178*
Y1585303*
X2468777Y1587178*
X2468231Y1588303*
X2467413Y1588678*
X2466868*
G54D109*
X1968504Y1585673D02*
X1993664D01*
X1968504D02*
X1973504Y1586673D01*
Y1584673*
X1968504Y1585673*
X2039370D02*
X2014210D01*
X2039370D02*
X2034370Y1584673D01*
Y1586673*
X2039370Y1585673*
X1968504Y1576803D02*
Y1587673D01*
X2039370Y1576803D02*
Y1587673D01*
X2054344Y1451093D02*
Y1508073D01*
Y1451093D02*
X2053344Y1456093D01*
X2055344*
X2054344Y1451093*
Y1574803D02*
Y1517823D01*
Y1574803D02*
X2055344Y1569803D01*
X2053344*
X2054344Y1574803*
X2041724Y1451093D02*
X2056344D01*
X2041370Y1574803D02*
X2056344D01*
X0Y0D02*
M02*
