M48
;FILE_FORMAT=2:4
INCH,LZ
FMAT,2
ICI,OFF
;TYPE=PLATED
T1C.00984
T2C.01
T3C.02
T4C.02165
T5C.02756
%
M72
G90
G93X0Y0
T1C.00984F0S0
X198873Y145354
X197353Y145356
X198348Y145357
X197857Y145361
X197353Y145826
X197844Y145839
X197865Y146305
X197357Y146309
X199148Y146429
X198614Y146475
X197351Y146794
X197888Y146819
X198614Y146984
X197645Y147083
X198208Y147084
X198871Y147318
X197357Y147323
X197946Y147335
X19837Y147372
X199208Y14752
X197695Y147549
X19736Y147782
X197947Y147838
X197591Y148039
X19737Y148295
X197741Y148317
X198359Y14853
X199043Y14853
X197727Y148644
X198145Y148751
X197351Y148785
X197584Y149023
X198828Y149101
X198378Y149122
X197347Y14929
X198116Y149396
X198825Y149416
X198365Y149653
X197343Y14979
X19879Y1499
X198131Y150001
X197353Y150308
X19851Y15058
X198329Y150719
X19924Y15092
X198318Y150936
X198357Y151141
X198103Y151183
X19924Y1512
X1984Y151345
X19924Y15148
X19845Y151549
X19924Y15176
X19822Y151766
X19835Y151945
X19924Y15204
X19815Y15211
X19835Y152275
X1981Y15244
X19835Y1526
X19793Y152716
X197322Y15274
X19813Y15289
X197511Y152931
X197848Y153047
X19835Y15336
X197988Y153485
X199212Y15358
X197417Y153641
X197434Y154279
X199125Y154439
X19876Y154463
X198349Y154495
X19789Y154505
X197546Y154509
X198562Y154724
X199098Y154728
X197974Y154731
X197348Y154735
X197069Y154884
X198788Y154891
X197664Y154896
X198274Y154896
X199365Y154895
X19988Y154888
X200706Y154887
X201766Y154876
X201102Y154868
X20154Y154856
X199661Y154742
X200447Y154738
X200124Y154738
X201331Y154695
X200898Y154684
X199351Y154525
X200601Y154515
X1996Y154427
X200118Y154421
X19985Y154412
X201609Y154251
X201093Y154244
X20135Y154215
X200383Y154202
X200838Y154088
X201345Y15392
X200981Y15388
X201596Y153861
X200295Y153854
X19965Y153647
X200806Y153638
X201343Y153606
X201589Y153506
X200288Y153476
X200806Y153313
X201494Y153275
X20123Y15321
X200283Y153193
X200965Y153061
X201525Y152984
X1998Y15204
X20008Y15204
X20036Y15204
X19952Y15204
X201724Y151958
X2011Y15187
X20036Y15176
X20008Y15176
X1998Y15176
X19952Y15176
X1998Y15148
X20036Y15148
X19952Y15148
X20008Y15148
X2011Y151435
X20036Y1512
X20008Y1512
X19952Y1512
X1998Y1512
X201621Y151089
X20135Y15105
X20008Y15092
X19952Y15092
X1998Y15092
X20036Y15092
X201116Y150648
X20133Y15046
X20155Y15046
X201118Y150429
X201068Y15021
X201817Y15021
X200438Y150192
X20065Y15004
X20085Y149852
X199677Y149852
X199363Y149852
X199984Y14972
X199523Y149685
X200153Y149593
X200455Y149194
X20067Y148876
X200342Y148848
X20065Y14853
X201346Y148251
X200387Y148248
X200832Y148248
X201336Y147917
X200387Y147917
X200832Y147912
X201795Y147911
X200153Y147738
X201844Y147508
X199984Y147281
X2016Y14728
X199523Y1471
X199984Y14693
X201355Y146923
X20184Y146855
X199627Y146817
X200194Y14671
X200769Y14671
X200411Y146415
X199872Y146383
X200126Y146147
X200776Y146111
X200422Y14588
X200143Y145639
X200776Y145607
X199363Y145343
X199882Y14534
X201173Y145334
X200776Y145334
X200358Y145333
X201592Y145333
X202971Y14531
X202519Y145313
X203444Y14532
X202088Y145334
X202376Y145571
X202894Y14561
X20301Y145907
X202909Y146284
X203483Y146312
X203438Y146864
X202331Y146885
X2019Y1471
X203438Y147229
X202993Y147339
X203139Y147594
X2026Y147738
X202864Y147803
X203438Y147815
X202942Y148772
X203438Y148786
X202941Y149258
X203438Y149273
X202786Y15011
X202067Y150131
X202531Y150134
X203005Y150198
X202322Y150353
X203154Y150395
X202015Y150469
X203154Y150656
X20185Y150811
X203154Y150938
X20185Y151092
X202903Y151236
X203154Y151242
X203154Y151537
X203151Y151815
X201997Y151997
X202933Y152025
X202677Y1521
X203164Y152211
X201894Y152316
X202897Y152416
X202571Y152416
X202272Y152416
X203074Y152921
X202375Y152985
X201934Y152989
X201943Y153269
X202398Y153269
X203422Y15327
X202854Y153274
X202546Y153527
X202203Y153538
X201906Y153572
X202507Y153805
X202198Y153826
X201888Y153972
X202546Y154558
X202345Y154598
X202533Y154794
X203686Y154861
X202276Y154875
T2C.01F095S3
X199075Y15389
X19847Y15389
X19847Y15413
X199075Y15413
X200875Y15273
T3C.02F197S55
X19685Y152049
T4C.02165F197S55
X19685Y145549
X19685Y146049
X19685Y146549
X19685Y147049
X19685Y147549
X19685Y148049
X19685Y148549
X19685Y149049
X19685Y149549
X19685Y150049
X19685Y150549
X19685Y151049
X19685Y151549
X19685Y152549
X19685Y153049
X19685Y153549
X19685Y154549
X203937Y154549
X203937Y154049
X203937Y153549
X203937Y153049
X203937Y152549
X203937Y152049
X203937Y151549
X203937Y151049
X203937Y150549
X203937Y150049
X203937Y149549
X203937Y149049
X203937Y148549
X203938Y148049
X203938Y147549
X203938Y147049
X203938Y146549
X203938Y146049
X203938Y145549
T5C.02756F197S55
X19685Y154049
M30
